<?xml version="1.0" encoding="UTF-8"?>
<svg xmlns="http://www.w3.org/2000/svg" xmlns:xlink="http://www.w3.org/1999/xlink" width="34pt" height="34pt" viewBox="0 0 34 34" version="1.1">
<g id="surface1">
<path style=" stroke:none;fill-rule:nonzero;fill:rgb(0%,0%,0%);fill-opacity:1;" d="M 17.113281 2.832031 L 17 2.832031 L 5.835938 4.023438 L 5.835938 24.535156 L 17 31.167969 L 28.164062 24.535156 L 28.164062 4.023438 Z M 26.746094 23.6875 L 17 29.464844 L 7.253906 23.6875 L 7.253906 15.300781 L 16.941406 21.078125 L 16.941406 22.101562 L 10.3125 18.132812 L 10.3125 19.152344 L 17 23.175781 L 17 24.253906 L 10.3125 20.285156 L 10.3125 21.308594 L 17 25.273438 L 23.742188 21.25 L 23.742188 16.941406 L 26.746094 15.128906 Z M 26.691406 14.054688 L 24.027344 15.640625 L 22.78125 16.375 L 16.941406 12.921875 L 16.941406 13.941406 L 21.929688 16.941406 L 21.875 16.941406 L 21.761719 17 L 21.023438 17.398438 L 16.886719 14.960938 L 16.886719 15.980469 L 20.171875 17.90625 L 19.378906 18.417969 L 16.941406 16.941406 L 16.941406 17.964844 L 18.585938 18.925781 L 16.941406 19.890625 L 7.308594 14.167969 L 16.941406 8.386719 Z M 26.746094 13.035156 L 16.941406 7.253906 L 7.253906 13.035156 L 7.253906 5.328125 L 17 4.308594 L 26.746094 5.328125 Z M 26.746094 13.035156 "/>
</g>
</svg>
