<svg xmlns="http://www.w3.org/2000/svg" width="34pt" height="34pt" viewBox="0 0 34 34"><path d="M17.113 2.832H17L5.836 4.023v20.512L17 31.168l11.164-6.633V4.023zm9.633 20.855L17 29.465l-9.746-5.777V15.3l9.687 5.777v1.024l-6.628-3.97v1.02L17 23.176v1.078l-6.688-3.969v1.024L17 25.273l6.742-4.023v-4.309l3.004-1.812zm-.055-9.632l-2.664 1.586-1.246.734-5.84-3.453v1.02l4.989 3h-.055l-.113.058-.739.398-4.136-2.437v1.02l3.285 1.925-.793.512-2.438-1.477v1.024l1.645.96-1.645.966-9.632-5.723 9.632-5.781zm.055-1.02l-9.805-5.781-9.687 5.781V5.328L17 4.308l9.746 1.02zm0 0"/></svg>